<svg xmlns="http://www.w3.org/2000/svg" viewBox="0 0 120 120">
  <circle cx="60" cy="60" r="60" fill="#81C784"/>
  <ellipse cx="60" cy="90" rx="26" ry="22" fill="#795548" stroke="#5D4037" stroke-width="1.5"/>
  <ellipse cx="60" cy="90" rx="18" ry="16" fill="#A1887F"/>
  <ellipse cx="32" cy="80" rx="10" ry="6" fill="#795548" stroke="#5D4037" stroke-width="1" transform="rotate(-20 32 80)"/>
  <ellipse cx="88" cy="80" rx="10" ry="6" fill="#795548" stroke="#5D4037" stroke-width="1" transform="rotate(20 88 80)"/>
  <ellipse cx="60" cy="52" rx="26" ry="24" fill="#795548" stroke="#5D4037" stroke-width="1.5"/>
  <circle cx="36" cy="30" r="12" fill="#795548"/>
  <circle cx="84" cy="30" r="12" fill="#795548"/>
  <circle cx="36" cy="30" r="7" fill="#A1887F"/>
  <circle cx="84" cy="30" r="7" fill="#A1887F"/>
  <ellipse cx="60" cy="56" rx="16" ry="14" fill="#A1887F"/>
  <ellipse cx="48" cy="48" rx="4" ry="4.5" fill="#2D1B00"/>
  <ellipse cx="72" cy="48" rx="4" ry="4.5" fill="#2D1B00"/>
  <circle cx="49" cy="46.5" r="1.5" fill="white"/>
  <circle cx="73" cy="46.5" r="1.5" fill="white"/>
  <ellipse cx="60" cy="58" rx="5" ry="3.5" fill="#2D1B00"/>
  <path d="M55,63 Q60,67 65,63" stroke="#2D1B00" stroke-width="1.2" fill="none"/>
  <circle cx="42" cy="58" r="4" fill="#E8B4B8" opacity="0.4"/>
  <circle cx="78" cy="58" r="4" fill="#E8B4B8" opacity="0.4"/>
</svg>