<svg xmlns="http://www.w3.org/2000/svg" viewBox="0 0 120 120">
  <circle cx="60" cy="60" r="60" fill="#81D4FA"/>
  <ellipse cx="35" cy="52" rx="18" ry="12" fill="white" opacity="0.7" transform="rotate(-15 35 52)"/>
  <ellipse cx="85" cy="52" rx="18" ry="12" fill="white" opacity="0.7" transform="rotate(15 85 52)"/>
  <ellipse cx="60" cy="72" rx="22" ry="24" fill="#FDD835" stroke="#F9A825" stroke-width="1.5"/>
  <ellipse cx="60" cy="65" rx="22" ry="3" fill="#F57F17"/>
  <ellipse cx="60" cy="76" rx="20" ry="3" fill="#F57F17"/>
  <ellipse cx="60" cy="87" rx="16" ry="3" fill="#F57F17"/>
  <ellipse cx="60" cy="95" rx="8" ry="3" fill="#F57F17"/>
  <circle cx="60" cy="40" r="18" fill="#FDD835" stroke="#F9A825" stroke-width="1.5"/>
  <ellipse cx="52" cy="38" rx="4.5" ry="5" fill="#263238"/>
  <ellipse cx="68" cy="38" rx="4.5" ry="5" fill="#263238"/>
  <circle cx="53" cy="36.5" r="1.8" fill="white"/>
  <circle cx="69" cy="36.5" r="1.8" fill="white"/>
  <line x1="52" y1="24" x2="45" y2="12" stroke="#263238" stroke-width="2" stroke-linecap="round"/>
  <line x1="68" y1="24" x2="75" y2="12" stroke="#263238" stroke-width="2" stroke-linecap="round"/>
  <circle cx="45" cy="12" r="3" fill="#263238"/>
  <circle cx="75" cy="12" r="3" fill="#263238"/>
  <path d="M54,46 Q60,51 66,46" stroke="#263238" stroke-width="1.5" fill="none"/>
</svg>