<svg xmlns="http://www.w3.org/2000/svg" viewBox="0 0 120 120">
  <circle cx="60" cy="60" r="60" fill="#F48FB1"/>
  <ellipse cx="60" cy="88" rx="20" ry="20" fill="#78909C" stroke="#455A64" stroke-width="1.5"/>
  <ellipse cx="60" cy="88" rx="14" ry="15" fill="#B0BEC5"/>
  <path d="M28,88 Q18,72 12,80 Q18,92 26,92Z" fill="#78909C" stroke="#455A64" stroke-width="1"/>
  <ellipse cx="34" cy="82" rx="6" ry="4" fill="#78909C" stroke="#455A64" stroke-width="1" transform="rotate(-15 34 82)"/>
  <ellipse cx="86" cy="82" rx="6" ry="4" fill="#78909C" stroke="#455A64" stroke-width="1" transform="rotate(15 86 82)"/>
  <ellipse cx="60" cy="50" rx="24" ry="22" fill="#78909C" stroke="#455A64" stroke-width="1.5"/>
  <polygon points="36,18 44,40 28,38" fill="#78909C"/>
  <polygon points="84,18 76,40 92,38" fill="#78909C"/>
  <polygon points="38,22 42,38 30,36" fill="#F8BBD0"/>
  <polygon points="82,22 78,38 90,36" fill="#F8BBD0"/>
  <ellipse cx="60" cy="54" rx="16" ry="14" fill="#B0BEC5"/>
  <ellipse cx="49" cy="46" rx="5" ry="6" fill="#4CAF50"/>
  <ellipse cx="71" cy="46" rx="5" ry="6" fill="#4CAF50"/>
  <ellipse cx="49" cy="46" rx="3" ry="4.5" fill="#2D1B00"/>
  <ellipse cx="71" cy="46" rx="3" ry="4.5" fill="#2D1B00"/>
  <circle cx="50" cy="44.5" r="1.2" fill="white"/>
  <circle cx="72" cy="44.5" r="1.2" fill="white"/>
  <polygon points="60,53 57,57 63,57" fill="#F8BBD0"/>
  <path d="M57,59 Q60,62 63,59" stroke="#546E7A" stroke-width="1" fill="none"/>
  <line x1="32" y1="52" x2="48" y2="55" stroke="#546E7A" stroke-width="0.8"/>
  <line x1="32" y1="57" x2="48" y2="57" stroke="#546E7A" stroke-width="0.8"/>
  <line x1="72" y1="55" x2="88" y2="52" stroke="#546E7A" stroke-width="0.8"/>
  <line x1="72" y1="57" x2="88" y2="57" stroke="#546E7A" stroke-width="0.8"/>
</svg>