<svg xmlns="http://www.w3.org/2000/svg" viewBox="0 0 120 120">
  <circle cx="60" cy="60" r="60" fill="#A5D6A7"/>
  <ellipse cx="60" cy="92" rx="20" ry="18" fill="#8D6E63" stroke="#6D4C41" stroke-width="1.5"/>
  <ellipse cx="60" cy="92" rx="14" ry="14" fill="#D7CCC8"/>
  <ellipse cx="34" cy="86" rx="6" ry="4" fill="#8D6E63" stroke="#6D4C41" stroke-width="1" transform="rotate(-10 34 86)"/>
  <ellipse cx="86" cy="86" rx="6" ry="4" fill="#8D6E63" stroke="#6D4C41" stroke-width="1" transform="rotate(10 86 86)"/>
  <ellipse cx="60" cy="52" rx="24" ry="24" fill="#8D6E63" stroke="#6D4C41" stroke-width="1.5"/>
  <line x1="40" y1="30" x2="30" y2="6" stroke="#5D4037" stroke-width="4" stroke-linecap="round"/>
  <line x1="30" y1="6" x2="20" y2="2" stroke="#5D4037" stroke-width="3" stroke-linecap="round"/>
  <line x1="30" y1="12" x2="24" y2="8" stroke="#5D4037" stroke-width="3" stroke-linecap="round"/>
  <line x1="80" y1="30" x2="90" y2="6" stroke="#5D4037" stroke-width="4" stroke-linecap="round"/>
  <line x1="90" y1="6" x2="100" y2="2" stroke="#5D4037" stroke-width="3" stroke-linecap="round"/>
  <line x1="90" y1="12" x2="96" y2="8" stroke="#5D4037" stroke-width="3" stroke-linecap="round"/>
  <ellipse cx="60" cy="56" rx="16" ry="16" fill="#D7CCC8"/>
  <ellipse cx="48" cy="48" rx="4" ry="5" fill="#3E2723"/>
  <ellipse cx="72" cy="48" rx="4" ry="5" fill="#3E2723"/>
  <circle cx="49" cy="46.5" r="1.5" fill="white"/>
  <circle cx="73" cy="46.5" r="1.5" fill="white"/>
  <ellipse cx="60" cy="60" rx="4" ry="3" fill="#3E2723"/>
  <path d="M56,65 Q60,69 64,65" stroke="#3E2723" stroke-width="1.2" fill="none"/>
</svg>