<svg xmlns="http://www.w3.org/2000/svg" viewBox="0 0 120 120">
  <circle cx="60" cy="60" r="60" fill="#8D6E63"/>
  <ellipse cx="60" cy="90" rx="22" ry="20" fill="#FFB74D" stroke="#E09940" stroke-width="1.5"/>
  <ellipse cx="60" cy="90" rx="16" ry="16" fill="#FFE0B2"/>
  <ellipse cx="34" cy="82" rx="8" ry="5" fill="#FFB74D" stroke="#E09940" stroke-width="1" transform="rotate(-15 34 82)"/>
  <ellipse cx="86" cy="82" rx="8" ry="5" fill="#FFB74D" stroke="#E09940" stroke-width="1" transform="rotate(15 86 82)"/>
  <path d="M80,86 Q92,76 96,88 Q90,94 84,92Z" fill="#FFB74D" stroke="#E09940" stroke-width="1"/>
  <ellipse cx="60" cy="50" rx="26" ry="24" fill="#FFB74D" stroke="#E09940" stroke-width="1.5"/>
  <ellipse cx="28" cy="34" rx="12" ry="18" fill="#C68A4D" transform="rotate(15 28 34)"/>
  <ellipse cx="92" cy="34" rx="12" ry="18" fill="#C68A4D" transform="rotate(-15 92 34)"/>
  <ellipse cx="60" cy="56" rx="16" ry="14" fill="#FFE0B2"/>
  <ellipse cx="48" cy="46" rx="4" ry="5" fill="#3E2723"/>
  <ellipse cx="72" cy="46" rx="4" ry="5" fill="#3E2723"/>
  <circle cx="49" cy="44.5" r="1.5" fill="white"/>
  <circle cx="73" cy="44.5" r="1.5" fill="white"/>
  <ellipse cx="60" cy="56" rx="5" ry="3.5" fill="#3E2723"/>
  <path d="M56,61 Q60,65 64,61" stroke="#3E2723" stroke-width="1.2" fill="none"/>
  <ellipse cx="60" cy="66" rx="5" ry="4" fill="#F48FB1"/>
</svg>