<svg xmlns="http://www.w3.org/2000/svg" viewBox="0 0 120 120">
  <circle cx="60" cy="60" r="60" fill="#90CAF9"/>
  <ellipse cx="60" cy="90" rx="22" ry="18" fill="#FF8C5A" stroke="#E65100" stroke-width="1.5"/>
  <ellipse cx="60" cy="90" rx="16" ry="14" fill="#FFE0D0"/>
  <path d="M82,82 Q105,62 95,47 Q90,52 85,67 Q82,74 82,82Z" fill="#FF8C5A" stroke="#E65100" stroke-width="1"/>
  <path d="M92,52 Q88,57 86,67" stroke="#FFE0D0" stroke-width="3" fill="none" stroke-linecap="round"/>
  <ellipse cx="60" cy="52" rx="24" ry="22" fill="#FF8C5A" stroke="#E65100" stroke-width="1.5"/>
  <polygon points="38,22 46,42 30,40" fill="#FF8C5A"/>
  <polygon points="82,22 74,42 90,40" fill="#FF8C5A"/>
  <polygon points="40,26 44,40 34,38" fill="#FFE0D0"/>
  <polygon points="80,26 76,40 86,38" fill="#FFE0D0"/>
  <ellipse cx="60" cy="56" rx="16" ry="14" fill="#FFE0D0"/>
  <ellipse cx="50" cy="48" rx="3.5" ry="4" fill="#2D1B00"/>
  <ellipse cx="70" cy="48" rx="3.5" ry="4" fill="#2D1B00"/>
  <circle cx="51" cy="47" r="1.3" fill="white"/>
  <circle cx="71" cy="47" r="1.3" fill="white"/>
  <ellipse cx="60" cy="56" rx="4" ry="3" fill="#2D1B00"/>
  <path d="M56,60 Q60,64 64,60" stroke="#2D1B00" stroke-width="1.2" fill="none"/>
</svg>