<svg xmlns="http://www.w3.org/2000/svg" viewBox="0 0 120 120">
  <circle cx="60" cy="60" r="60" fill="#FFF176"/>
  <ellipse cx="60" cy="78" rx="28" ry="24" fill="#81C784" stroke="#4CAF50" stroke-width="1.5"/>
  <ellipse cx="60" cy="80" rx="20" ry="18" fill="#C8E6C9"/>
  <ellipse cx="34" cy="90" rx="10" ry="5" fill="#81C784" stroke="#4CAF50" stroke-width="1" transform="rotate(-10 34 90)"/>
  <ellipse cx="86" cy="90" rx="10" ry="5" fill="#81C784" stroke="#4CAF50" stroke-width="1" transform="rotate(10 86 90)"/>
  <ellipse cx="34" cy="100" rx="12" ry="4" fill="#4CAF50"/>
  <ellipse cx="86" cy="100" rx="12" ry="4" fill="#4CAF50"/>
  <circle cx="30" cy="100" r="3" fill="#4CAF50"/>
  <circle cx="38" cy="100" r="3" fill="#4CAF50"/>
  <circle cx="82" cy="100" r="3" fill="#4CAF50"/>
  <circle cx="90" cy="100" r="3" fill="#4CAF50"/>
  <ellipse cx="60" cy="48" rx="24" ry="20" fill="#81C784" stroke="#4CAF50" stroke-width="1.5"/>
  <ellipse cx="40" cy="32" rx="12" ry="12" fill="#81C784" stroke="#4CAF50" stroke-width="1"/>
  <ellipse cx="80" cy="32" rx="12" ry="12" fill="#81C784" stroke="#4CAF50" stroke-width="1"/>
  <ellipse cx="40" cy="32" rx="9" ry="9" fill="white"/>
  <ellipse cx="80" cy="32" rx="9" ry="9" fill="white"/>
  <circle cx="42" cy="32" r="5.5" fill="#1B5E20"/>
  <circle cx="82" cy="32" r="5.5" fill="#1B5E20"/>
  <circle cx="43.5" cy="30.5" r="2" fill="white"/>
  <circle cx="83.5" cy="30.5" r="2" fill="white"/>
  <path d="M48,58 Q60,68 72,58" stroke="#2E7D32" stroke-width="2" fill="none"/>
  <circle cx="40" cy="52" r="4" fill="#E8F5E9" opacity="0.5"/>
  <circle cx="80" cy="52" r="4" fill="#E8F5E9" opacity="0.5"/>
</svg>