<svg xmlns="http://www.w3.org/2000/svg" viewBox="0 0 120 120">
  <circle cx="60" cy="60" r="60" fill="#81D4FA"/>
  <ellipse cx="60" cy="90" rx="24" ry="20" fill="white" stroke="#BDBDBD" stroke-width="1.5"/>
  <ellipse cx="34" cy="78" rx="12" ry="8" fill="#263238" stroke="#1a1a1a" stroke-width="1" transform="rotate(-10 34 78)"/>
  <ellipse cx="86" cy="78" rx="12" ry="8" fill="#263238" stroke="#1a1a1a" stroke-width="1" transform="rotate(10 86 78)"/>
  <ellipse cx="60" cy="48" rx="26" ry="24" fill="white" stroke="#BDBDBD" stroke-width="1.5"/>
  <circle cx="36" cy="28" r="12" fill="#263238" stroke="#1a1a1a" stroke-width="1"/>
  <circle cx="84" cy="28" r="12" fill="#263238" stroke="#1a1a1a" stroke-width="1"/>
  <ellipse cx="46" cy="44" rx="12" ry="10" fill="#263238"/>
  <ellipse cx="74" cy="44" rx="12" ry="10" fill="#263238"/>
  <ellipse cx="46" cy="44" rx="5" ry="5.5" fill="white"/>
  <ellipse cx="74" cy="44" rx="5" ry="5.5" fill="white"/>
  <ellipse cx="47" cy="43.5" rx="3" ry="3.5" fill="#263238"/>
  <ellipse cx="75" cy="43.5" rx="3" ry="3.5" fill="#263238"/>
  <circle cx="48" cy="42.5" r="1.2" fill="white"/>
  <circle cx="76" cy="42.5" r="1.2" fill="white"/>
  <ellipse cx="60" cy="56" rx="4.5" ry="3.5" fill="#263238"/>
  <path d="M56,61 Q60,65 64,61" stroke="#BDBDBD" stroke-width="1.2" fill="none"/>
  <circle cx="42" cy="56" r="4" fill="#F8BBD0" opacity="0.35"/>
  <circle cx="78" cy="56" r="4" fill="#F8BBD0" opacity="0.35"/>
</svg>