<svg xmlns="http://www.w3.org/2000/svg" viewBox="0 0 120 120">
  <circle cx="60" cy="60" r="60" fill="#81D4FA"/>
  <ellipse cx="60" cy="78" rx="28" ry="30" fill="#263238"/>
  <ellipse cx="60" cy="82" rx="18" ry="22" fill="white"/>
  <ellipse cx="32" cy="76" rx="10" ry="18" fill="#37474F" transform="rotate(10 32 76)"/>
  <ellipse cx="88" cy="76" rx="10" ry="18" fill="#37474F" transform="rotate(-10 88 76)"/>
  <ellipse cx="60" cy="42" rx="22" ry="20" fill="#263238"/>
  <ellipse cx="48" cy="40" rx="4" ry="4.5" fill="white"/>
  <ellipse cx="72" cy="40" rx="4" ry="4.5" fill="white"/>
  <ellipse cx="49" cy="40" rx="2.5" ry="3" fill="#263238"/>
  <ellipse cx="73" cy="40" rx="2.5" ry="3" fill="#263238"/>
  <circle cx="50" cy="39" r="1" fill="white"/>
  <circle cx="74" cy="39" r="1" fill="white"/>
  <polygon points="60,48 54,56 66,56" fill="#FF9800"/>
  <circle cx="42" cy="48" r="3.5" fill="#F8BBD0" opacity="0.35"/>
  <circle cx="78" cy="48" r="3.5" fill="#F8BBD0" opacity="0.35"/>
  <ellipse cx="48" cy="108" rx="8" ry="4" fill="#FF9800"/>
  <ellipse cx="72" cy="108" rx="8" ry="4" fill="#FF9800"/>
</svg>