<svg xmlns="http://www.w3.org/2000/svg" viewBox="0 0 120 120">
  <circle cx="60" cy="60" r="60" fill="#9CCC65"/>
  <ellipse cx="60" cy="92" rx="20" ry="18" fill="#EEEEEE"/>
  <ellipse cx="60" cy="92" rx="14" ry="14" fill="white"/>
  <ellipse cx="36" cy="86" rx="6" ry="4" fill="#EEEEEE" transform="rotate(-10 36 86)"/>
  <ellipse cx="84" cy="86" rx="6" ry="4" fill="#EEEEEE" transform="rotate(10 84 86)"/>
  <circle cx="60" cy="108" r="5" fill="white"/>
  <ellipse cx="60" cy="52" rx="22" ry="20" fill="#EEEEEE"/>
  <ellipse cx="44" cy="18" rx="10" ry="24" fill="#EEEEEE"/>
  <ellipse cx="76" cy="18" rx="10" ry="24" fill="#EEEEEE"/>
  <ellipse cx="44" cy="18" rx="6" ry="18" fill="#F8BBD0"/>
  <ellipse cx="76" cy="18" rx="6" ry="18" fill="#F8BBD0"/>
  <ellipse cx="60" cy="56" rx="14" ry="12" fill="white"/>
  <ellipse cx="48" cy="48" rx="4" ry="5" fill="#E91E63"/>
  <ellipse cx="72" cy="48" rx="4" ry="5" fill="#E91E63"/>
  <circle cx="49" cy="46.5" r="1.5" fill="white"/>
  <circle cx="73" cy="46.5" r="1.5" fill="white"/>
  <polygon points="60,55 57,59 63,59" fill="#F8BBD0"/>
  <path d="M56,61 Q60,64 64,61" stroke="#BDBDBD" stroke-width="1" fill="none"/>
  <circle cx="42" cy="58" r="4" fill="#F8BBD0" opacity="0.4"/>
  <circle cx="78" cy="58" r="4" fill="#F8BBD0" opacity="0.4"/>
</svg>