<svg xmlns="http://www.w3.org/2000/svg" viewBox="0 0 120 120">
  <circle cx="60" cy="60" r="60" fill="#B39DDB"/>
  <ellipse cx="60" cy="90" rx="22" ry="20" fill="#607D8B" stroke="#37474F" stroke-width="1.5"/>
  <ellipse cx="60" cy="90" rx="16" ry="16" fill="#90A4AE"/>
  <path d="M28,88 Q16,72 12,82 Q18,92 26,90Z" fill="#607D8B" stroke="#37474F" stroke-width="1"/>
  <ellipse cx="34" cy="82" rx="8" ry="5" fill="#607D8B" stroke="#37474F" stroke-width="1" transform="rotate(-10 34 82)"/>
  <ellipse cx="86" cy="82" rx="8" ry="5" fill="#607D8B" stroke="#37474F" stroke-width="1" transform="rotate(10 86 82)"/>
  <ellipse cx="60" cy="50" rx="26" ry="24" fill="#607D8B" stroke="#37474F" stroke-width="1.5"/>
  <polygon points="34,16 42,40 26,38" fill="#607D8B"/>
  <polygon points="86,16 78,40 94,38" fill="#607D8B"/>
  <polygon points="36,20 40,38 28,36" fill="#90A4AE"/>
  <polygon points="84,20 80,38 92,36" fill="#90A4AE"/>
  <ellipse cx="60" cy="58" rx="16" ry="14" fill="#B0BEC5"/>
  <ellipse cx="46" cy="46" rx="4.5" ry="4" fill="#FFC107"/>
  <ellipse cx="74" cy="46" rx="4.5" ry="4" fill="#FFC107"/>
  <ellipse cx="46" cy="46" rx="2.5" ry="3" fill="#263238"/>
  <ellipse cx="74" cy="46" rx="2.5" ry="3" fill="#263238"/>
  <circle cx="47" cy="45" r="1" fill="white"/>
  <circle cx="75" cy="45" r="1" fill="white"/>
  <ellipse cx="60" cy="58" rx="5" ry="3.5" fill="#263238"/>
  <path d="M55,63 Q60,67 65,63" stroke="#37474F" stroke-width="1.2" fill="none"/>
</svg>